<?xml version="1.0" encoding="UTF-8"?>
<svg id="Calque_1" data-name="Calque 1" xmlns="http://www.w3.org/2000/svg" viewBox="0 0 424.1 196.2">
  <defs>
    <style>
      .cls-1 {
        fill: #00af9f;
      }

      .cls-2 {
        fill: #ef8d14;
      }

      .cls-3 {
        fill: #00903f;
      }

      .cls-4 {
        fill: #1e1e1c;
      }

      .cls-5 {
        fill: #008dc2;
      }
    </style>
  </defs>
  <g>
    <path class="cls-3" d="M72,97c0-3.7,0-36-.2-39.7-.2-3.5-1.4-6.8-3.1-9.9-2.5-4.5-6.1-8-10.7-10.4-1.7-.9-3.6-1.5-5.4-2.1-.9-.3-1.6.3-1.7,1.1-.2.8.3,1.4,1.1,1.7,1.7.6,3.4,1.2,4.9,2,3.6,1.8,6.4,4.5,8.6,7.9,2,3.2,3.3,6.7,3.5,10.5,0,2.3,0,.8.1,6.8,0,0,0,.4,0,.4,0,1.9,0,32,0,34.2,0,3-.8,5.8-2.7,8.2-3.6,4.8-10.3,6.7-15.9,4-4.6-2.2-7.3-5.9-7.6-10.9-.3-4.1-.1-36.9,0-41.1,0-2.3,2.6-3.8,4.7-2.9,1.4.6,2.1,1.8,2.1,3.3,0,2.4,0,33.5,0,35.9s0,2.4,0,3.7c0,1,.2,2.1.7,3,1.2,2.5,4.3,4,6.7,3.4,3.3-.8,5.3-3.1,5.3-6.2,0-3.9,0-36.4,0-40.3,0-2.5-.6-4.8-1.8-7-2.6-4.7-6.5-7.6-11.8-8.5-3.5-.6-6.9,0-10,1.6-5.7,3.1-8.6,8.1-8.7,14.5,0,3.6,0,35.8,0,39.3,0,2,.3,4,.7,6,.8,3.9,2.6,7.4,5.1,10.6,3.2,4,7.3,6.8,12.2,8.4.6.2,1.3.4,1.9.4.7,0,1.3-.6,1.4-1.4,0-.8-.5-1.4-1.4-1.7-1.1-.3-2.2-.7-3.3-1.2-3.4-1.5-6.3-3.8-8.6-6.7-2.9-3.7-4.7-7.8-4.8-12.5-.2-4.3,0-37.2-.1-41.5,0-2.3.5-4.5,1.7-6.6,3.2-5.7,10.1-8.3,16.3-5.7,4.9,2,7.8,5.8,8.2,11,.3,4.2.1,37.1,0,41.4,0,1.5-1.3,2.8-3,3-1.3.2-3-.7-3.4-2-.3-1.1-.3-2.3-.4-3.4,0-3.1,0-34.7,0-37.8,0-1-.2-2.1-.7-2.9-1.4-2.7-4.4-4-7.4-3.2-2.6.7-4.6,3-4.6,6,0,4,0,36.5,0,40.5,0,2,.4,4,1.3,5.8,2.2,4.9,5.9,8.1,11.2,9.3,3.3.8,6.5.6,9.6-.7,5.8-2.4,9.2-6.8,10.1-13,.2-1.6.2-3.2.2-4.9"/>
    <path class="cls-3" d="M65,115.4c-1.6.8-3.3,1.6-5.1,2-4.4,1-8.6.6-12.6-1.6-6.2-3.4-9.4-8.8-9.6-15.9,0-3.7,0-36,0-39.7,0-1.6.4-3.2,1.3-4.6,2.5-4.2,8.6-5.2,12.3-2,2,1.7,3,3.9,3,6.6,0,3.5,0,35.7,0,39.2,0,1.3.5,1.9,1.5,1.9,1,0,1.6-.9,1.5-1.9,0-3.5,0-35.7,0-39.2,0-1.9-.4-3.7-1.3-5.4-2.6-5-8.3-7.3-13.6-5.5-4.5,1.5-7.6,5.7-7.6,10.6,0,2,0,4.1,0,6.1h0c0,2,0,32.6,0,34.7,0,3.9,1.2,7.5,3.4,10.7,4.9,7.1,11.7,10.3,20.3,9.4,2.9-.3,5.5-1.3,8-2.8.8-.5,1-1.3.5-2.1-.4-.7-1.2-.9-2-.5"/>
    <path class="cls-3" d="M37,44.5c1.9-1.1,3.8-1.8,6-2.2,4.3-.8,8.3-.1,12,2.1,5.9,3.5,9,8.8,9.2,15.7,0,3.6,0,35.8,0,39.4,0,1.3-.2,2.6-.8,3.9-1.9,4.1-6.7,6.1-10.9,4.1-3.3-1.6-4.9-4.3-4.9-7.9,0-3.5,0-35.6,0-39.1,0-.5-.2-1.1-.5-1.5-.3-.4-.9-.6-1.5-.3-.6.3-.9.8-.9,1.5,0,3.6,0,35.8,0,39.3,0,1.6.3,3.1.8,4.5,2.3,5.8,8.8,8.6,14.6,6.3,4.2-1.6,7.1-5.7,7-10.4,0-2,0-32.7,0-34.7,0-1.8,0-3.6,0-5.4,0-2.9-.6-5.8-1.8-8.4-3.2-6.9-8.6-11-16-12.2-4.8-.8-9.5.1-13.8,2.6-.9.5-1.1,1.3-.7,2.1.4.7,1.4.9,2.2.4"/>
    <path class="cls-2" d="M123.3,138.3c0,.8-.2,1.3-.5,1.7-.3.3-.9.5-1.7.5h-4.8c-1.2,0-2.2-.4-3.1-1.1-.8-.7-1.4-1.7-1.6-2.9l-11.6-71,1.6,70.3c0,1.4-.4,2.5-1.3,3.3-.9.8-2.1,1.3-3.4,1.3h-4.8c-.8,0-1.4-.2-1.7-.5-.3-.3-.5-.9-.5-1.7V21.3c0-.8.1-1.3.4-1.6.2-.3.8-.5,1.7-.5h5c1.1,0,2.1.3,2.9,1,.8.7,1.3,1.6,1.5,2.8l11.7,71-1.6-70.3c0-1.4.4-2.5,1.3-3.3.9-.8,2-1.2,3.2-1.2h5.1c.9,0,1.5.2,1.7.5.2.3.4.8.4,1.6v117Z"/>
    <path class="cls-2" d="M153.6,19.2c1.4,0,2.1.8,2.1,2.3v1.7c0,1.9-.5,3.4-1.4,4.4-.9,1-2.2,1.5-3.9,1.5h-10v46.2h11.5c1.4,0,2.1.8,2.1,2.3v1.8c0,1.9-.5,3.4-1.4,4.4-.9,1-2.2,1.5-3.9,1.5h-8.3v45h10c1.7,0,3,.5,3.9,1.5.9,1,1.4,2.5,1.4,4.5v1.7c0,1.6-.7,2.3-2.1,2.3h-22.3c-1.1,0-1.9-.2-2.2-.4-.3-.3-.5-.9-.5-1.7V21.4c0-.8.1-1.4.4-1.7.3-.3.8-.5,1.7-.5h22.8Z"/>
    <path class="cls-2" d="M175.6,17.4c2.6,0,4.9.4,6.9,1.1,2,.8,3.8,1.8,5.2,3.1,1.4,1.3,2.6,2.9,3.3,4.6.8,1.7,1.2,3.6,1.2,5.6v38.4c0,1.2-.7,1.8-2,1.8h-5.2c-.9,0-1.8-.3-2.8-.8-1-.5-1.5-1.4-1.5-2.6v-36.3c0-1.2-.5-2.3-1.4-3.2-.9-.9-2.2-1.4-4-1.4s-3,.5-3.9,1.4c-.8.9-1.3,2-1.3,3.2v95c0,1.2.4,2.3,1.3,3.2.8.9,2.2,1.4,4,1.4s3.3-.5,4-1.5c.7-1,1.1-2,1.1-3v-36.3c0-.6.1-1.1.5-1.6.3-.4.7-.8,1.1-1.1.4-.3.9-.5,1.4-.6.5-.1,1-.2,1.4-.2h5.2c1.4,0,2.1.6,2.1,1.7v38.3c0,2-.4,4-1.2,5.7-.8,1.8-1.9,3.3-3.4,4.6-1.5,1.3-3.3,2.3-5.4,3-2.1.7-4.4,1.1-7,1.1s-4.9-.4-6.9-1.1c-2-.7-3.8-1.7-5.2-3-1.4-1.3-2.6-2.8-3.3-4.6-.8-1.8-1.2-3.7-1.2-5.7V31.9c0-2,.4-3.9,1.2-5.7.8-1.7,1.9-3.3,3.4-4.6,1.5-1.3,3.3-2.3,5.4-3.1,2.1-.8,4.4-1.1,7-1.1"/>
    <path class="cls-2" d="M209.5,137.8c0,1.7-.9,2.6-2.6,2.6h-6.5c-1.7,0-2.5-.9-2.5-2.6V23.8c0-1.4.5-2.5,1.4-3.3.9-.8,2-1.2,3.2-1.2h5c.9,0,1.5.2,1.7.5.2.3.4.8.4,1.6v116.5Z"/>
    <path class="cls-2" d="M51,141.4h-.3c-19.6,0-35.5-15.9-35.5-35.5v-51.8c0-19.6,15.9-35.5,35.5-35.5s35.8,15.9,35.8,35.5v51.8c0,19.6-15.9,35.5-35.5,35.5M51,27.3c-15.1,0-27.1,12-27.1,26.8v51.8c0,14.8,12,26.8,26.8,26.8h.3c14.8,0,26.8-12,26.8-26.8v-51.8c0-14.8-12-26.8-26.8-26.8"/>
    <path class="cls-4" d="M22.6,161.2c-2.7,0-3.7-2.8-3.7-6.1s1.3-6,3.9-6,3.6,3.1,3.6,5.8c0,4.4-1.6,6.2-3.8,6.2h0ZM22.7,159.2c1,0,1.3-1.7,1.3-4.1s-.3-3.9-1.4-3.9-1.4,1.9-1.4,4c0,2.3.4,4.1,1.4,4.1h0Z"/>
    <polygon class="cls-4" points="27.9 149.3 33 149.3 33 151.3 30.2 151.3 30.2 154.3 32.8 154.3 32.8 156.2 30.2 156.2 30.2 161.1 27.9 161.1 27.9 149.3"/>
    <polygon class="cls-4" points="34.7 149.3 39.8 149.3 39.8 151.3 37 151.3 37 154.3 39.7 154.3 39.7 156.2 37 156.2 37 161.1 34.7 161.1 34.7 149.3"/>
    <rect class="cls-4" x="41.6" y="149.3" width="2.3" height="11.8"/>
    <path class="cls-4" d="M51.5,160.9c-.3.2-1,.3-1.8.3-3,0-4.5-2.5-4.5-5.8s2.5-6.2,4.8-6.2,1.4.2,1.6.3l-.4,1.9c-.3-.1-.6-.2-1.1-.2-1.3,0-2.5,1.1-2.5,4s1.1,3.9,2.5,3.9.8,0,1.1-.2l.2,1.9Z"/>
    <polygon class="cls-4" points="57.8 155.9 55.1 155.9 55.1 159.1 58.1 159.1 58.1 161.1 52.8 161.1 52.8 149.3 57.9 149.3 57.9 151.3 55.1 151.3 55.1 154 57.8 154 57.8 155.9"/>
    <path class="cls-4" d="M62.5,161.1v-11.8h2.1l1.8,4.6c.4.9.9,2.4,1.3,3.4h0c0-1.2-.2-3.3-.2-5.5v-2.6h2v11.8h-2.1l-1.8-4.5c-.4-1-.9-2.5-1.2-3.5h0c0,1.2.2,3,.2,5.4v2.7h-2Z"/>
    <path class="cls-4" d="M73.3,158.4l-.5,2.7h-2.2l2.6-11.8h2.7l2.3,11.8h-2.2l-.5-2.7h-2.1ZM75.2,156.6l-.4-2.5c-.1-.7-.3-1.9-.4-2.7h0c-.1.8-.3,2-.4,2.7l-.4,2.5h1.7Z"/>
    <polygon class="cls-4" points="79.9 151.4 77.8 151.4 77.8 149.3 84.3 149.3 84.3 151.4 82.2 151.4 82.2 161.1 79.9 161.1 79.9 151.4"/>
    <rect class="cls-4" x="85.5" y="149.3" width="2.3" height="11.8"/>
    <path class="cls-4" d="M92.9,161.2c-2.7,0-3.7-2.8-3.7-6.1s1.3-6,3.9-6,3.6,3.1,3.6,5.8c0,4.4-1.6,6.2-3.8,6.2h0ZM93,159.2c1,0,1.3-1.7,1.3-4.1s-.3-3.9-1.4-3.9-1.4,1.9-1.4,4c0,2.3.4,4.1,1.4,4.1h0Z"/>
    <path class="cls-4" d="M98.2,161.1v-11.8h2.1l1.8,4.6c.4.9.9,2.4,1.3,3.4h0c0-1.2-.2-3.3-.2-5.5v-2.6h2v11.8h-2.1l-1.8-4.5c-.4-1-.9-2.5-1.2-3.5h0c0,1.2.2,3,.2,5.4v2.7h-2Z"/>
    <path class="cls-4" d="M109.1,158.4l-.5,2.7h-2.2l2.6-11.8h2.7l2.3,11.8h-2.2l-.5-2.7h-2.1ZM111,156.6l-.4-2.5c-.1-.7-.3-1.9-.4-2.7h0c-.1.8-.3,2-.4,2.7l-.4,2.5h1.7Z"/>
    <polygon class="cls-4" points="115.2 149.3 117.5 149.3 117.5 159.1 120.5 159.1 120.5 161.1 115.2 161.1 115.2 149.3"/>
    <path class="cls-4" d="M124.6,149.5c.6-.1,1.4-.2,2.3-.2,1.5,0,2.5.3,3.3,1,1,.9,1.5,2.5,1.5,4.8s-.6,4.1-1.6,5c-.8.8-2,1.1-3.6,1.1s-1.4,0-1.9-.1v-11.6ZM126.9,159.3c.1,0,.3,0,.4,0,1.1,0,2.1-1.1,2.1-4.3s-.6-3.9-2-3.9-.3,0-.5,0v8.1Z"/>
    <polygon class="cls-4" points="138.2 155.9 135.5 155.9 135.5 159.1 138.5 159.1 138.5 161.1 133.2 161.1 133.2 149.3 138.3 149.3 138.3 151.3 135.5 151.3 135.5 154 138.2 154 138.2 155.9"/>
    <polygon class="cls-4" points="142.9 149.3 145.2 149.3 145.2 159.1 148.2 159.1 148.2 161.1 142.9 161.1 142.9 149.3"/>
    <path class="cls-4" d="M150.9,149.1c-.5,1.6-1.2,3.1-2,4.4l-1.2.2c.5-1.4,1-3,1.2-4.4l2-.2Z"/>
    <polygon class="cls-4" points="157 155.9 154.3 155.9 154.3 159.1 157.4 159.1 157.4 161.1 152 161.1 152 149.3 157.2 149.3 157.2 151.3 154.3 151.3 154.3 154 157 154 157 155.9"/>
    <polygon class="cls-4" points="160.2 151.4 158.1 151.4 158.1 149.3 164.6 149.3 164.6 151.4 162.5 151.4 162.5 161.1 160.2 161.1 160.2 151.4"/>
    <path class="cls-4" d="M167.1,158.4l-.5,2.7h-2.2l2.6-11.8h2.7l2.3,11.8h-2.2l-.5-2.7h-2.1ZM169,156.6l-.4-2.5c-.1-.7-.3-1.9-.4-2.7h0c-.1.8-.3,2-.4,2.7l-.4,2.5h1.7Z"/>
    <polygon class="cls-4" points="173.6 151.4 171.5 151.4 171.5 149.3 178 149.3 178 151.4 175.9 151.4 175.9 161.1 173.6 161.1 173.6 151.4"/>
    <path class="cls-4" d="M187.6,160.9c-.3.2-1,.3-1.8.3-3,0-4.5-2.5-4.5-5.8s2.5-6.2,4.8-6.2,1.4.2,1.6.3l-.4,1.9c-.3-.1-.6-.2-1.1-.2-1.3,0-2.5,1.1-2.5,4s1.1,3.9,2.5,3.9.8,0,1.1-.2l.2,1.9Z"/>
    <rect class="cls-4" x="188.9" y="149.3" width="2.3" height="11.8"/>
    <path class="cls-4" d="M194.8,161.1l-2.6-11.8h2.5l.8,5.1c.2,1.3.4,2.7.6,4.1h0c.2-1.4.3-2.8.6-4.1l.8-5h2.5l-2.7,11.8h-2.6Z"/>
    <rect class="cls-4" x="201.1" y="149.3" width="2.3" height="11.8"/>
    <polygon class="cls-4" points="205.4 149.3 207.7 149.3 207.7 159.1 210.7 159.1 210.7 161.1 205.4 161.1 205.4 149.3"/>
    <polygon class="cls-4" points="53.1 173.5 50.4 173.5 50.4 176.7 53.4 176.7 53.4 178.7 48.1 178.7 48.1 166.9 53.3 166.9 53.3 168.9 50.4 168.9 50.4 171.6 53.1 171.6 53.1 173.5"/>
    <polygon class="cls-4" points="56.3 169 54.2 169 54.2 166.9 60.7 166.9 60.7 169 58.6 169 58.6 178.7 56.3 178.7 56.3 169"/>
    <path class="cls-4" d="M64.7,167.1c.6-.1,1.4-.2,2.3-.2,1.5,0,2.5.3,3.3,1,1,.9,1.5,2.5,1.5,4.8s-.6,4.1-1.6,5c-.8.8-2,1.1-3.6,1.1s-1.4,0-1.9-.1v-11.6ZM66.9,176.8c.1,0,.3,0,.4,0,1.1,0,2.1-1.1,2.1-4.3s-.6-3.9-2-3.9-.3,0-.5,0v8.1Z"/>
    <polygon class="cls-4" points="78.2 173.5 75.5 173.5 75.5 176.7 78.5 176.7 78.5 178.7 73.2 178.7 73.2 166.9 78.4 166.9 78.4 168.9 75.5 168.9 75.5 171.6 78.2 171.6 78.2 173.5"/>
    <polygon class="cls-4" points="82.9 166.9 85.2 166.9 85.2 176.7 88.2 176.7 88.2 178.7 82.9 178.7 82.9 166.9"/>
    <path class="cls-4" d="M90.9,166.7c-.5,1.6-1.2,3.1-2,4.4l-1.2.2c.5-1.4,1-3,1.2-4.4l2-.2Z"/>
    <rect class="cls-4" x="92.1" y="166.9" width="2.3" height="11.8"/>
    <path class="cls-4" d="M96.4,167.1c.6-.1,1.4-.2,2.3-.2,1.5,0,2.5.3,3.3,1,1,.9,1.5,2.5,1.5,4.8s-.6,4.1-1.6,5c-.8.8-2,1.1-3.6,1.1s-1.4,0-1.9-.1v-11.6ZM98.7,176.8c.1,0,.3,0,.4,0,1.1,0,2.1-1.1,2.1-4.3s-.6-3.9-2-3.9-.3,0-.5,0v8.1Z"/>
    <polygon class="cls-4" points="109.9 173.5 107.3 173.5 107.3 176.7 110.3 176.7 110.3 178.7 105 178.7 105 166.9 110.1 166.9 110.1 168.9 107.3 168.9 107.3 171.6 109.9 171.6 109.9 173.5"/>
    <path class="cls-4" d="M111.9,178.7v-11.8h2.1l1.8,4.6c.4.9.9,2.4,1.3,3.4h0c0-1.2-.2-3.3-.2-5.5v-2.6h2v11.8h-2.1l-1.8-4.5c-.4-1-.9-2.5-1.2-3.5h0c0,1.2.2,3,.2,5.4v2.7h-2Z"/>
    <polygon class="cls-4" points="122.2 169 120.1 169 120.1 166.9 126.5 166.9 126.5 169 124.4 169 124.4 178.7 122.2 178.7 122.2 169"/>
    <rect class="cls-4" x="127.7" y="166.9" width="2.3" height="11.8"/>
    <polygon class="cls-4" points="132.1 166.9 137.2 166.9 137.2 168.9 134.4 168.9 134.4 171.9 137 171.9 137 173.8 134.4 173.8 134.4 178.7 132.1 178.7 132.1 166.9"/>
    <rect class="cls-4" x="138.9" y="166.9" width="2.3" height="11.8"/>
    <path class="cls-4" d="M148.9,178.5c-.3.2-1,.3-1.8.3-3,0-4.5-2.5-4.5-5.8s2.5-6.2,4.8-6.2,1.4.2,1.6.3l-.4,1.9c-.3-.1-.6-.2-1.1-.2-1.3,0-2.5,1.1-2.5,4s1.1,3.9,2.5,3.9.8,0,1.1-.2l.2,1.9Z"/>
    <path class="cls-4" d="M152.3,176l-.5,2.7h-2.2l2.6-11.8h2.7l2.3,11.8h-2.2l-.5-2.7h-2.1ZM154.2,174.2l-.4-2.5c-.1-.7-.3-1.9-.4-2.7h0c-.1.8-.3,2-.4,2.7l-.4,2.5h1.7Z"/>
    <polygon class="cls-4" points="158.8 169 156.8 169 156.8 166.9 163.2 166.9 163.2 169 161.1 169 161.1 178.7 158.8 178.7 158.8 169"/>
    <rect class="cls-4" x="164.4" y="166.9" width="2.3" height="11.8"/>
    <path class="cls-4" d="M171.9,178.8c-2.7,0-3.7-2.8-3.7-6.1s1.3-6,3.9-6,3.6,3.1,3.6,5.8c0,4.4-1.6,6.2-3.8,6.2h0ZM172,176.8c1,0,1.3-1.7,1.3-4.1s-.3-3.9-1.4-3.9-1.4,1.9-1.4,4c0,2.3.4,4.1,1.4,4.1h0Z"/>
    <path class="cls-4" d="M177.2,178.7v-11.8h2.1l1.8,4.6c.4.9.9,2.4,1.3,3.4h0c0-1.2-.2-3.3-.2-5.5v-2.6h2v11.8h-2.1l-1.8-4.5c-.4-1-.9-2.5-1.2-3.5h0c0,1.2.2,3,.2,5.4v2.7h-2Z"/>
  </g>
  <g>
    <g>
      <path class="cls-5" d="M388.9,145.4c0,1-.8,1.8-1.8,1.8s-1.8-.8-1.8-1.8.8-1.8,1.8-1.8,1.8.8,1.8,1.8"/>
      <path class="cls-1" d="M275.5,151c-3.7-1.4-5.7,1.8-5.7,1.8l-3.7,10.9s-.2,1-.9,2.5c-.5,1.3-2.7,2.8-3.3,3.2-1.3.5-2.7.8-4.1.8-6.1,0-11.1-5-11.1-11.1s4-10.1,9.3-11c1.1-3.4,3.3-6.3,6.1-8.3-1.4-.3-2.8-.5-4.3-.5-10.9,0-19.8,8.9-19.8,19.8s8.9,19.8,19.8,19.8,3-.2,4.4-.5c0,0,0,0,0,0,0,0,0,0,0,0,0,0,0,0,0,0,9.7-3.2,11.1-8.1,11.1-8.1l4.6-13.9s.9-4.1-2.5-5.3"/>
      <path class="cls-5" d="M274.7,139.1c-1.5,0-3,.2-4.4.5h0s0,0,0,0c0,0,0,0,0,0-9.7,3.2-11.2,8.1-11.2,8.1l-4.6,13.9s-.9,4.1,2.5,5.3c3.7,1.4,5.7-1.8,5.7-1.8l3.7-10.9s.2-1,.9-2.5c.5-1.3,2.7-2.8,3.3-3.2,1.3-.5,2.7-.8,4.1-.8,6.1,0,11.1,5,11.1,11.1s-4,10.1-9.3,11c-1.1,3.4-3.3,6.3-6.1,8.3,1.4.3,2.8.5,4.3.5,10.9,0,19.8-8.9,19.8-19.8s-8.9-19.8-19.8-19.8"/>
      <path class="cls-1" d="M319,154.5v11.6h-3.6v-11.6c0-1.5-1.2-2.7-2.7-2.7s-2.7,1.2-2.7,2.7v11.6h-3.6v-11.6c0-1.5-1.2-2.7-2.7-2.7s-2.7,1.2-2.7,2.7v11.6h-3.6v-11.6c0-5.6,6.8-8.4,10.7-4.4,3.9-4,10.7-1.2,10.7,4.4"/>
      <path class="cls-1" d="M338.7,149.9h-3.6c-1.5-1-3.4-1.7-5.4-1.7-4.9,0-8.9,4-8.9,8.9s4,8.9,8.9,8.9,3.9-.7,5.4-1.8v1.8h3.6v-.8h0v-15.4ZM329.7,162.6c-3,0-5.4-2.4-5.4-5.4s2.4-5.4,5.4-5.4,5.4,2.4,5.4,5.4-2.4,5.4-5.4,5.4"/>
      <path class="cls-1" d="M340.5,148.2h3.6v8.9c0,3,2.4,5.4,5.4,5.4s5.4-2.4,5.4-5.4v-8.9h3.6v17.9c0,4.9-4,8.9-8.9,8.9v-3.6c3,0,5.4-2.4,5.4-5.4v-1.8c-5.9,4.4-14.3.2-14.3-7.2v-8.9Z"/>
      <path class="cls-1" d="M363.9,158.1c.4,2.5,2.6,4.5,5.3,4.5s3.1-.7,4.1-1.9l3.5,1.3c-1.6,2.5-4.4,4.2-7.6,4.2-4.6,0-8.5-3.5-8.9-8,0-.3,0-.6,0-.9,0-.5,0-.9.1-1.4,0-.4.2-.9.3-1.3.2-.7.6-1.4,1-2,1.6-2.5,4.4-4.2,7.6-4.2s7.4,2.6,8.5,6.3c.3.8.4,1.7.4,2.7s0,.6,0,.9h-14.2ZM364.5,154.5h9.3c-.9-1.6-2.7-2.7-4.6-2.7s-3.1.7-4.1,1.9c-.2.2-.4.5-.5.8"/>
      <rect class="cls-1" x="379.9" y="139.3" width="3.6" height="26.8"/>
      <rect class="cls-1" x="385.3" y="148.2" width="3.6" height="17.9"/>
      <path class="cls-1" d="M408.6,149.9h-3.6c-1.5-1-3.4-1.7-5.4-1.7-4.9,0-8.9,4-8.9,8.9s4,8.9,8.9,8.9,3.9-.7,5.4-1.8v1.8h3.6v-.8h0v-15.4ZM399.7,162.6c-3,0-5.4-2.4-5.4-5.4s2.4-5.4,5.4-5.4,5.4,2.4,5.4,5.4-2.4,5.4-5.4,5.4"/>
    </g>
    <g>
      <path class="cls-5" d="M363.6,168.8h2l2,3.7,2-3.7h2v9.1h-1.8v-5.8l-2.1,3.7h0l-2.1-3.7v5.8h-1.8v-9.1Z"/>
      <path class="cls-5" d="M372.9,174.5h0c0-2.2,1.4-3.7,3.3-3.7s3.2,1.5,3.2,3.5h0c0,2.2-1.4,3.7-3.3,3.7s-3.3-1.5-3.3-3.5ZM377.6,174.5h0c0-1.2-.6-2.1-1.4-2.1s-1.4.8-1.4,2h0c0,1.2.6,2.1,1.5,2.1s1.4-.8,1.4-2Z"/>
      <path class="cls-5" d="M382.5,177v.9h-1.8v-9.3h1.8v3.4c.4-.6,1-1.1,1.9-1.1,1.4,0,2.6,1.1,2.6,3.5v.2c0,2.4-1.3,3.5-2.6,3.5s-1.5-.5-1.9-1ZM385.2,174.5h0c0-1.3-.6-2.1-1.3-2.1s-1.4.7-1.4,1.9h0c0,1.3.6,2.1,1.4,2.1s1.3-.7,1.3-1.9Z"/>
      <path class="cls-5" d="M388.3,168.5h1.9v1.7h-1.9v-1.7ZM388.3,171h1.8v6.9h-1.8v-6.9Z"/>
      <path class="cls-5" d="M391.8,168.5h1.8v9.3h-1.8v-9.3Z"/>
      <path class="cls-5" d="M395.2,168.5h1.9v1.7h-1.9v-1.7ZM395.2,171h1.8v6.9h-1.8v-6.9Z"/>
      <path class="cls-5" d="M398.9,176.2v-3.7h-.7v-1.6h.7v-1.8h1.8v1.8h1.4v1.6h-1.4v3.3c0,.4.2.6.6.6s.5,0,.8-.2v1.5c-.4.2-.8.4-1.4.4-1.1,0-1.8-.4-1.8-1.9Z"/>
      <path class="cls-5" d="M402.8,174.5h0c0-2.2,1.3-3.7,3-3.7s3,1.6,3,3.7,0,.3,0,.6h-4.1c.2.9.7,1.4,1.5,1.4s1-.3,1.4-.7l.9,1.1c-.6.7-1.4,1.1-2.5,1.1-1.8,0-3.2-1.4-3.2-3.5ZM407.1,173.9c0-1-.5-1.6-1.2-1.6s-1.1.6-1.2,1.6h2.4ZM406.5,168.1l1.5.7-1.6,1.5h-1.3l1.3-2.2Z"/>
    </g>
  </g>
</svg>